HIERARCHY
ROOT pelvis
{
  OFFSET 0 100 0
  CHANNELS 6 Xposition Yposition Zposition Zrotation Xrotation Yrotation
  JOINT pelvis_right_femur
  {
    OFFSET -10.78128 -3.44521 -0.5502486
    CHANNELS 3 Zrotation Xrotation Yrotation
    JOINT right_femur_tibia
    {
      OFFSET -0.8047443 -44.0398 -0.1307829
      CHANNELS 3 Zrotation Xrotation Yrotation
      JOINT right_tibia_foot
      {
        OFFSET 3.006224 -47.83518 -5
        CHANNELS 3 Zrotation Xrotation Yrotation
        End Site
        {
          OFFSET 0 -5 15
        }
      }
    }
  }
  JOINT pelvis_left_femur
  {
    OFFSET 10.78128 -3.44521 -0.5502486
    CHANNELS 3 Zrotation Xrotation Yrotation
    JOINT left_femur_tibia
    {
      OFFSET 0.8047443 -44.0398 -0.1307829
      CHANNELS 3 Zrotation Xrotation Yrotation
      JOINT left_tibia_foot
      {
        OFFSET -4.370144 -48.10324 -4.275266
        CHANNELS 3 Zrotation Xrotation Yrotation
        End Site
        {
          OFFSET 0 -5 15
        }
      }
    }
  }
  JOINT pelvis_spine1
  {
    OFFSET 0 6.468898 -3.129235
    CHANNELS 3 Zrotation Xrotation Yrotation
    JOINT spine1
    {
      OFFSET 0 23.15396 4.99043
      CHANNELS 3 Zrotation Xrotation Yrotation
      JOINT spine2
      {
        OFFSET 0 20.79997 -5.064912
        CHANNELS 3 Zrotation Xrotation Yrotation
        JOINT neck
        {
          OFFSET 0 14.38658 9.616178
          CHANNELS 3 Zrotation Xrotation Yrotation
          End Site
          {
            OFFSET 0 20 0
          }
        }
      }
      JOINT right_manubrium
      {
        OFFSET -5.722621 16.35077 3.967754
        CHANNELS 3 Zrotation Xrotation Yrotation
        JOINT right_clavicle
        {
          OFFSET -13.16364 1.694482 -4.693211
          CHANNELS 3 Zrotation Xrotation Yrotation
          JOINT right_humerus
          {
            OFFSET -28.5034 -0.3100689 -2.792744
            CHANNELS 3 Zrotation Xrotation Yrotation
            JOINT right_radius
            {
              OFFSET -25.15693 0.02248979 -1.271978
              CHANNELS 3 Zrotation Xrotation Yrotation
              End Site
              {
                OFFSET -15 0 0
              }
            }
          }
        }
      }
      JOINT left_manubrium
      {
        OFFSET 5.722621 16.35077 3.967754
        CHANNELS 3 Zrotation Xrotation Yrotation
        JOINT left_clavicle
        {
          OFFSET 13.16364 1.694482 -4.693211
          CHANNELS 3 Zrotation Xrotation Yrotation
          JOINT left_humerus
          {
            OFFSET 29.39168 -1.063119 -2.237045
            CHANNELS 3 Zrotation Xrotation Yrotation
            JOINT left_radius
            {
              OFFSET 24.59957 -0.9528479 0.9047498
              CHANNELS 3 Zrotation Xrotation Yrotation
              End Site
              {
                OFFSET 15 -0 -0
              }
            }
          }
        }
      }
    }
  }
}
MOTION
Frames: 15
Frame Time: 0.0416666666667
1598.367 108.9389 2511.9 5.948239 -2.509057 64.55107 2.77297 -24.23075 1.673511 -0 15.2656 -0 -1.289202 -5.839651 -9.580135 -3.810327 18.40518 -8.444608 -0 26.8979 -0 -8.33077 -17.09959 11.98039 -1.592257 1.015678 1.382856 1.318414 7.775488 -7.300604 2.859928 23.35325 5.218527 1.516442 -15.37878 8.384418 1.578076 -11.7033 9.482015 90.83706 25.64111 -21.24003 -0 0 6.324659 -19.01991 13.67965 8.214384 6.33663 -20.95939 -4.332826 -80.61211 24.16167 0.9878175 0 0 -25.94002 2.240077 10.13659 10.00312
1604.186 108.9832 2515.323 6.443047 -2.993152 64.44368 3.630215 -19.89263 2.726503 -0 16.8292 -0 -2.381343 -6.649581 -9.381584 -3.42017 15.99355 -8.802181 -0 35.91291 -0 -8.97977 -14.30123 12.72074 -1.206033 1.145541 1.664397 1.235744 7.756665 -6.67219 3.142116 23.80835 4.823195 1.568912 -15.23806 8.250507 1.941643 -11.36413 9.595146 90.21889 26.00397 -20.11243 -0 0 6.079752 -17.93646 13.27982 7.612893 5.775882 -20.02794 -4.006908 -81.92453 24.65796 2.405016 0 0 -22.99353 2.424204 10.68199 9.918151
1609.884 109.5571 2518.723 7.290085 -3.464895 64.10745 4.177799 -14.45291 3.669424 -0 18.91481 -0 -3.101726 -7.657031 -9.079911 -3.12691 12.09547 -8.809004 -0 44.43851 -0 -9.176649 -11.54388 13.8835 -0.9568421 1.288671 2.261109 1.033527 8.031021 -5.968921 3.354671 24.2492 4.441676 1.607923 -14.98031 8.038223 2.23255 -11.50086 9.844148 89.39418 26.12515 -18.6401 -0 0 6.458138 -17.4434 12.96771 7.301879 5.16224 -19.172 -3.837892 -83.42994 24.89006 4.387922 0 0 -20.08653 2.485067 11.01686 9.931188
1615.383 110.418 2522.028 8.203782 -3.797218 63.57946 4.375853 -9.083359 4.269676 -0 19.85305 -0 -3.233303 -8.982715 -8.646482 -2.870093 7.223901 -8.334479 -0 50.22746 -0 -8.870099 -9.497035 15.21633 -0.880382 1.425654 3.107328 0.7650595 8.501233 -5.336435 3.440501 24.54834 4.157885 1.618983 -14.68538 7.784705 2.303205 -12.15975 10.17785 88.46544 25.92955 -17.07591 -0 0 7.495447 -17.71432 12.80324 7.381462 4.725971 -18.62683 -3.821801 -84.77047 24.67551 6.433584 0 0 -18.0692 2.492633 11.01815 9.889327
1620.689 111.2564 2525.2 8.843714 -3.913203 62.90046 4.325015 -4.431154 4.501135 -0 18.99437 -0 -2.777952 -10.5736 -8.031898 -2.542384 1.854658 -7.465011 -0 52.24625 -0 -8.210364 -8.377467 16.46601 -0.941921 1.52748 4.100083 0.4911766 9.003315 -4.847504 3.375863 24.61319 4.039276 1.615705 -14.51411 7.539142 2.159127 -13.26559 10.5245 87.44441 25.58029 -15.53741 -0 0 9.139424 -18.64651 12.78533 7.883311 4.544929 -18.38753 -3.862754 -85.83651 24.14633 8.414551 0 0 -17.13719 2.385858 10.66 9.905812
1625.877 111.8354 2528.233 9.026174 -3.817065 62.11488 4.138077 -0.4947707 4.48563 -0 16.87165 -0 -1.928569 -12.24505 -7.223828 -2.080544 -3.641803 -6.430048 -0 50.85671 -0 -7.447016 -7.982282 17.50691 -1.074465 1.573812 5.125756 0.2477738 9.392617 -4.482828 3.190433 24.44323 4.09098 1.620122 -14.57711 7.340007 1.914372 -14.64792 10.82025 86.29008 25.30963 -13.98692 -0 0 11.24376 -19.94696 12.85014 8.74325 4.549261 -18.26619 -3.842556 -86.75321 23.58478 10.47994 0 0 -16.86376 2.066877 10.03784 10.19195
1631.049 112.0394 2531.134 8.773094 -3.56708 61.27636 3.873901 2.970849 4.366211 -0 14.4801 -0 -0.9181977 -13.78633 -6.274525 -1.505786 -8.92804 -5.457774 -0 47.04731 -0 -6.779054 -7.999222 18.3276 -1.224781 1.560908 6.080261 0.03853217 9.589678 -4.179826 2.950229 24.11183 4.263107 1.641558 -14.86545 7.211094 1.67418 -16.10624 11.02149 84.99675 25.2293 -12.34379 -0 0 13.60069 -21.31988 12.91332 9.827862 4.634659 -18.06399 -3.691578 -87.67184 23.18415 12.73006 0 0 -16.66696 1.535513 9.302122 10.8119
1636.298 111.8574 2533.928 8.220139 -3.233493 60.44509 3.547357 6.117846 4.232328 -0 12.69117 -0 0.07953145 -14.9946 -5.274597 -0.9078339 -13.67396 -4.702754 -0 41.81411 -0 -6.29709 -8.203632 18.95518 -1.366874 1.49627 6.883276 -0.1506411 9.580533 -3.885204 2.72087 23.71135 4.494581 1.678172 -15.29497 7.165571 1.485404 -17.46499 11.10675 83.62946 25.31248 -10.58685 -0 0 15.98482 -22.57522 12.91221 10.98997 4.730555 -17.67437 -3.404709 -88.64915 22.97881 15.09537 0 0 -16.15371 0.8944718 8.582303 11.65347
1641.701 111.3538 2536.646 7.531281 -2.879261 59.68215 3.157573 8.930994 4.116649 -0 12.11995 -0 0.958345 -15.66244 -4.323658 -0.4121715 -17.57741 -4.250807 -0 36.02685 -0 -6.005606 -8.474687 19.40771 -1.494132 1.391452 7.482721 -0.3370392 9.403144 -3.576414 2.545261 23.31896 4.742283 1.726805 -15.7694 7.207052 1.353745 -18.59393 11.07674 82.31262 25.46837 -8.789654 -0 0 18.17626 -23.63278 12.821 12.10335 4.800849 -17.09202 -3.025964 -89.64438 22.90138 17.39372 0 0 -15.18663 0.2837865 7.961408 12.52709
1647.314 110.6478 2539.323 6.864753 -2.558827 59.04654 2.70534 11.27739 4.022453 -0 13.18334 -0 1.660548 -15.59068 -3.520807 -0.1481229 -20.38675 -4.138842 -0 30.47995 -0 -5.859527 -8.751659 19.684 -1.610456 1.258438 7.853867 -0.5339231 9.134235 -3.262097 2.440054 22.9876 4.984784 1.786158 -16.20869 7.328712 1.273785 -19.40924 10.95389 81.20365 25.60576 -7.110389 -0 0 19.97618 -24.48551 12.65145 13.07073 4.824815 -16.385 -2.630348 -90.555 22.85784 19.41265 0 0 -13.82654 -0.1768374 7.480152 13.25867
1653.165 109.8981 2541.988 6.358798 -2.317319 58.59357 2.199065 12.97056 3.951773 -0 16.13387 -0 2.171589 -14.64168 -2.960995 -0.2149905 -21.92391 -4.359278 -0 25.88674 -0 -5.792098 -9.003248 19.76866 -1.725478 1.108126 7.998172 -0.746591 8.873985 -2.976951 2.399118 22.7444 5.215646 1.853808 -16.55569 7.512927 1.249295 -19.87508 10.77971 80.45747 25.66873 -5.758018 -0 0 21.23337 -25.16215 12.45233 13.82481 4.783611 -15.6632 -2.306957 -91.26028 22.78334 20.97642 0 0 -12.2646 -0.4298986 7.141704 13.75654
1659.245 109.2847 2544.653 6.113761 -2.183332 58.37289 1.655527 13.82025 3.921244 -0 21.01225 -0 2.521858 -12.80945 -2.726259 -0.6488445 -22.1069 -4.856162 -0 22.77095 -0 -5.736908 -9.221241 19.64071 -1.85153 0.9494319 7.939894 -0.968292 8.723875 -2.774951 2.398533 22.58975 5.435833 1.922418 -16.77846 7.732353 1.300279 -20.00669 10.60716 80.18522 25.65204 -4.943601 -0 0 21.87552 -25.69629 12.30451 14.3314 4.65685 -15.04948 -2.140223 -91.66479 22.67547 21.99508 0 0 -10.76612 -0.5072968 6.916534 14.05333
1665.5 108.9777 2547.303 6.170321 -2.158396 58.4239 1.101233 13.6644 3.955936 -0 27.52574 -0 2.775899 -10.27312 -2.87101 -1.403427 -20.9613 -5.529677 -0 21.30945 -0 -5.645443 -9.432099 19.28537 -2.000311 0.7897584 7.717005 -1.176451 8.757851 -2.718528 2.404108 22.50132 5.647247 1.979156 -16.87104 7.953151 1.454063 -19.86553 10.4864 80.42205 25.59639 -4.827403 -0 0 21.92284 -26.10353 12.30153 14.5912 4.431351 -14.65526 -2.189912 -91.72379 22.59987 22.47198 0 0 -9.623215 -0.525752 6.757957 14.29755
1671.832 109.0907 2549.898 6.493878 -2.210408 58.7667 0.5761367 12.38589 4.058268 -0 34.90587 -0 3.000451 -7.398018 -3.401533 -2.356775 -18.61436 -6.255154 -0 21.21879 -0 -5.496608 -9.715011 18.71004 -2.178778 0.6377163 7.367434 -1.332863 8.993504 -2.861675 2.382708 22.44639 5.848137 2.009981 -16.84975 8.1412 1.720591 -19.53897 10.44675 81.1207 25.56247 -5.476165 -0 0 21.46685 -26.37452 12.51097 14.6344 4.122295 -14.56432 -2.473926 -91.43408 22.65969 22.44983 0 0 -9.11586 -0.6319214 6.627857 14.67014
1678.119 109.6314 2552.39 6.977358 -2.279596 59.39042 0.1326179 9.927494 4.171874 -0 41.88954 -0 3.224281 -4.656535 -4.254158 -3.344477 -15.2732 -6.91004 -0 21.79153 -0 -5.296278 -10.20362 17.95774 -2.384698 0.5061834 6.917197 -1.392663 9.376753 -3.229258 2.315519 22.39923 6.031399 2.006662 -16.7441 8.271336 2.064005 -19.10801 10.48255 82.17454 25.59107 -6.84161 -0 0 20.62146 -26.48801 12.93135 14.50598 3.794611 -14.82396 -2.959535 -90.80012 22.92978 21.9234 0 0 -9.471297 -0.9089593 6.518324 15.24889
